<?xml version="1.0" encoding="utf-8"?>
<!-- Generator: Adobe Illustrator 25.2.0, SVG Export Plug-In . SVG Version: 6.00 Build 0)  -->
<svg version="1.1" id="Layer_1" xmlns="http://www.w3.org/2000/svg" xmlns:xlink="http://www.w3.org/1999/xlink" x="0px" y="0px"
	 viewBox="0 0 1366 768" style="enable-background:new 0 0 1366 768;" xml:space="preserve">
<style type="text/css">
	.st0{fill:#FC5C00;}
	.st1{fill:#A0A0A0;}
	.st2{fill:#A0A0A0;stroke:#A0A0A0;stroke-width:2;stroke-miterlimit:10;}
</style>
<g>
	<g>
		<g transform="translate(0.000000,1020.000000) scale(0.100000,-0.100000)">
			<path class="st0" d="M3223.3,7992.6c0-1.6,7.4-11.1,16.9-21c21-22.6,30-43.2,39.1-87.6c9-46.1,6.2-114.8-8.6-189.2
				c-13.6-69.5-95.4-317.5-201.1-608.7c-16.9-46.5-29.6-85.6-28.4-87.2c0.8-1.6,19.7-15.6,41.5-30.8
				c46.9-32.5,108.2-77.7,157.5-117.2c19.7-15.2,37.4-28,39.1-28c2.1,0,9,14.4,15.6,32.1c6.6,17.3,39.1,102.8,72.4,190
				c74.4,193.3,209.4,547,211.8,554.4c2.9,7.4,9,2.9,11.5-8.2c0.8-5.3,40.3-116.8,87.2-248c46.9-131.2,106.1-297.8,131.6-370.2
				c70.3-197.8,148.9-418.7,193.3-542.9c48.1-134.9,98.7-278,172.3-485.3l55.1-156.3l46.9-44.8c108.2-104.1,276-234,420.8-325.8
				c74.4-47.3,202.4-119.3,206.1-116c0.8,0.8-6.6,12.8-16.9,25.9c-84.3,113.1-255.4,492.7-426.5,946
				c-141.9,377.2-374.3,1058.7-529.8,1552.7c-25.1,80.2-47.7,151-50.2,157.5l-4.1,11.1h-326.6
				C3370.1,7995,3223.3,7993.8,3223.3,7992.6z"/>
			<path class="st0" d="M5818.2,7662.7c0,0-89.7-223.8-136.6-342.2c-69.5-174.8-180.2-453.3-317.5-797.9
				c-53.9-134.5-100.3-256.3-101.1-260c9.9,0,217,0,217,0l4.6,12.4c2.5,6.2,31.7,85.1,64.6,175.6s63.3,170.7,63.3,170.7l535.5,4.2
				l3.3-13.2c4.1-9.9,35-92.1,68.3-183l61.2-166.6c0,0,213.1,0,217.9,0c0,2.1-53.3,138.6-116.6,297.8
				c-62.9,159.2-187.6,472.6-276.4,696.3l-161.6,406H5818.2z M5913.2,7264.1c16.5-44.8,50.6-138.6,76.5-208.9
				c25.5-69.9,56.3-154.7,68.7-188c12.3-33.3,21.4-61.7,20.2-62.9c-2.1-2.1-399.8-2.9-399.8-0.8c0,0.4,27.1,74,60.1,163.3
				c32.9,89.3,77.7,211,99.5,270.6c21.8,59.2,40.7,107.8,42.4,107.8C5882,7345.2,5896.8,7308.6,5913.2,7264.1z"/>
			<path class="st0" d="M6771.6,7662.7c0-3.1-2.9-316.7-2.9-700.9V6263l303.5,1.6c327.4,2.1,317.9,1.2,401.9,25.5
				c49.8,14,144,61.7,187.6,94.2c161.2,119.7,260.4,297,283,505.1c17.7,161.2-25.1,341.4-112.3,472.2
				c-108.6,162.1-250.9,259.1-433.5,294.9c-31.3,5.8-73.6,7-329.9,8.2C6907,7666,6773.3,7664.3,6771.6,7662.7z M7398.1,7477.2
				c100.4-30,188.4-96.7,251.3-191.3c33.3-49.4,49.4-82.3,66.6-136.1c20.2-63.3,28.4-116.4,28.4-185.1c0-97.9-17.3-175.6-58-259.1
				c-65.4-134.1-166.2-221.3-294.5-255.8l-41.1-10.7l-189.2-0.4l-189.2-0.4l-1.2,525.7l-0.8,525.7l198.3-1.2
				C7360.2,7486.7,7368.4,7486.2,7398.1,7477.2z"/>
			<path class="st0" d="M8309.1,7662.7c-1.2-2.9-1.6-319.6-1.2-702.1l1.2-698h199.5l0.8,203.2l1.2,202.8l156.7,1.2l156.7,0.8
				l108.2-165.3c59.6-91.3,119.3-183,132.9-203.6l24.7-39.1h224c0,0-35.6,58-75.9,118.9c-126.3,192.1-211,322.5-211,325.8
				c0,1.6,9.5,7.4,21.4,13.2c33.3,15.2,68.3,39.1,101.6,69.1c190,169.5,219.2,477.9,64.6,683.6c-81,107.8-196.2,173.2-331.1,188.8
				C8827.8,7668,8311.6,7668.9,8309.1,7662.7z M8894.4,7483c75.3-17.7,141.9-74.4,179.7-152.2c40.7-83.9,48.1-180.6,20.6-275.6
				s-98.3-170.7-188.4-200.7c-24.3-8.2-34.5-8.6-210.6-9h-185.1l-1.2,322.1l-0.8,321.6h179.7
				C8832.7,7489.1,8873.4,7487.9,8894.4,7483z"/>
			<path class="st0" d="M9691.5,7662.7V6263.4h203.2l-0.8,700.5l-1.2,698.8H9691.5z"/>
			<path class="st1" d="M2295.8,7102.9c258.3-88.4,454.1-208.5,634.7-390.3c171.1-171.9,275.6-328.2,488.2-730.9
				c33.3-63.3,83.9-158.8,112.3-211.8c188-352.9,372.2-577.9,599.3-731.7c233.6-158.4,510-246.8,882.3-282.6
				c90.9-8.6,366.1-12.3,481.2-6.2c120.9,6.2,356.2,26.3,360.7,30.4c0.4,0.8-22.6,6.2-51.4,12.8c-148.5,32.1-281.7,68.7-427.4,117.2
				c-441.7,147.2-785.6,345.5-1113,641.6c-127.1,115.2-320.8,325.8-463.5,504.3c-301.9,376.8-494,581.6-672.5,716.5
				c-229.1,173.2-498.5,287.1-797.9,338.5c-40.7,6.6-80.6,13.2-88.4,14.4C2232.4,7126.3,2257.5,7116.1,2295.8,7102.9z"/>
			<path class="st0" d="M2851.9,6488.8c-96.2-253.4-200.3-505.1-325.8-788.9c-79.8-179.7-216.3-436-278-521.1
				c-13.2-18.5-24.3-35.4-24.3-37.8c0-3.3,94.2-4.5,322.9-4.5c184.7,0,322.9,1.6,322.9,3.7c0,2.1-11.5,15.2-25.1,29.6
				c-81.9,85.1-117.6,182.6-96.2,264.5c3.3,12.8,38.7,108.2,78.6,211.4c39.9,103.2,88,229.5,107.4,280.5c19.7,51,37.8,95,40.7,98.3
				c12.3,13.6,39.1-31.3,112.7-188.8c153-328.6,336.5-573.8,565.6-756.4c104.5-83.5,180.6-132,301.9-193.3
				c96.2-48.5,144.4-68.7,246.4-103.2c115.6-38.7,238.6-69.9,209.4-53.1c-4.1,2.5-29.6,13.6-57.2,24.7
				c-95.4,39.1-203.6,96.7-291.6,154.2c-118.9,78.1-202.8,147.2-301.9,248.8c-80.2,82.7-147.7,164.5-209.8,254.6
				c-108.2,157.5-180.2,289.2-325.8,596c-120.1,253-181,364-247.6,450.8c-20.2,26.7-90.1,100.8-95,100.8
				C2880.2,6559.6,2866.7,6527.5,2851.9,6488.8z"/>
			<path class="st0" d="M10754.1,7663.5c0,0-89.7-223.8-136.6-342.2c-69.5-174.8-180.2-453.3-317.5-797.9
				c-53.9-134.5-100.3-256.3-101.1-260c9.9,0,217,0,217,0l4.6,12.4c2.5,6.2,31.7,85.1,64.6,175.6c32.9,90.5,63.3,170.7,63.3,170.7
				l535.5,4.2l3.3-13.2c4.1-9.9,35-92.1,68.3-183l61.2-166.6c0,0,213.1,0,217.9,0c0,2.1-53.3,138.6-116.6,297.8
				c-62.9,159.2-187.6,472.6-276.4,696.3l-161.6,406H10754.1z M10849.1,7265c16.5-44.8,50.6-138.6,76.5-208.9
				c25.5-69.9,56.3-154.7,68.7-188c12.3-33.3,21.4-61.7,20.2-62.9c-2.1-2.1-399.8-2.9-399.8-0.8c0,0.4,27.1,74,60.1,163.3
				c32.9,89.3,77.7,211,99.5,270.6c21.8,59.2,40.7,107.8,42.4,107.8C10817.8,7346,10832.6,7309.4,10849.1,7265z"/>
		</g>
		<rect x="526.3" y="413" class="st2" width="617.4" height="3.1"/>
	</g>
	<g>
		<path class="st1" d="M525.3,484v-51h5.5v51H525.3z"/>
		<path class="st1" d="M543.7,484v-51h6.3l30.4,43v-43h5.5v51h-6.2l-30.5-43v43H543.7z"/>
		<path class="st1" d="M598.6,484v-51h16c15.9,0,23.9,8.5,23.9,25.5c0,17-8,25.5-23.9,25.5H598.6z M604.2,478.8h10.1
			c6.5,0,11.3-1.6,14.3-4.9c3-3.3,4.5-8.4,4.5-15.5c0-7-1.5-12.2-4.5-15.5c-3-3.3-7.8-4.9-14.3-4.9h-10.1V478.8z"/>
		<path class="st1" d="M649.8,484v-51h5.5v51H649.8z"/>
		<path class="st1" d="M663.8,484l20.3-51h5.5l20.3,51H704l-6.1-15.9h-22l-6.1,15.9H663.8z M677.9,462.8h17.9l-8.9-23.3L677.9,462.8
			z"/>
		<path class="st1" d="M742.1,446.5c0-3.9,1.4-7.3,4.3-10c2.8-2.8,7.3-4.1,13.3-4.1c4.3,0,8.6,1,12.8,3v5.7
			c-3.8-2.1-7.9-3.2-12.2-3.2c-4.1,0-7.2,0.7-9.4,2.2c-2.2,1.5-3.2,3.6-3.2,6.5c0,1.7,0.7,3.2,2.1,4.4c1.4,1.2,3.1,2,5.2,2.6
			c2.1,0.6,4.3,1.3,6.8,2.1c2.5,0.9,4.7,1.8,6.8,2.8c2.1,1,3.8,2.6,5.2,4.7c1.4,2.1,2.1,4.7,2.1,7.8c0,4.2-1.6,7.6-4.8,10
			c-3.2,2.4-7.6,3.6-13.3,3.6c-5.5,0-10.6-1.2-15.1-3.6v-6c4,2.7,8.9,4.1,14.7,4.1c8.7,0,13-2.7,13-8.1c0-2.3-0.7-4.2-2.1-5.8
			c-1.4-1.6-3.1-2.7-5.2-3.4l-6.8-2.2c-2.4-0.8-4.7-1.6-6.8-2.4c-2.1-0.8-3.8-2.1-5.2-3.9C742.8,451.4,742.1,449.2,742.1,446.5z"/>
		<path class="st1" d="M783.6,458.4c0-17.4,7.9-26.1,23.6-26.1c15.8,0,23.7,8.7,23.7,26.1c0,17.4-7.9,26.1-23.7,26.1
			C791.5,484.6,783.6,475.9,783.6,458.4z M793.5,442.5c-2.9,3.4-4.4,8.7-4.4,15.9s1.5,12.5,4.4,15.9c2.9,3.4,7.5,5,13.8,5
			c6.3,0,10.9-1.7,13.8-5c2.9-3.4,4.3-8.7,4.3-15.9s-1.4-12.5-4.3-15.9c-2.9-3.4-7.5-5-13.8-5C801,437.5,796.4,439.2,793.5,442.5z"
			/>
		<path class="st1" d="M841.6,484v-51h5.5v45.6h26v5.3H841.6z"/>
		<path class="st1" d="M881.5,463v-30h5.5v30.3c0,10.8,5.1,16.2,15.2,16.2c10.1,0,15.2-5.4,15.2-16.2V433h5.5v30
			c0,7-1.8,12.3-5.4,16c-3.6,3.7-8.7,5.5-15.4,5.5c-6.7,0-11.8-1.8-15.4-5.5C883.2,475.3,881.5,470,881.5,463z"/>
		<path class="st1" d="M931.1,438.3V433h41.5v5.3h-18V484h-5.5v-45.6H931.1z"/>
		<path class="st1" d="M980.9,484v-51h5.5v51H980.9z"/>
		<path class="st1" d="M997.4,458.4c0-17.4,7.9-26.1,23.6-26.1c15.8,0,23.7,8.7,23.7,26.1c0,17.4-7.9,26.1-23.7,26.1
			C1005.3,484.6,997.4,475.9,997.4,458.4z M1007.3,442.5c-2.9,3.4-4.4,8.7-4.4,15.9s1.5,12.5,4.4,15.9c2.9,3.4,7.5,5,13.8,5
			c6.3,0,10.9-1.7,13.8-5c2.9-3.4,4.3-8.7,4.3-15.9s-1.4-12.5-4.3-15.9c-2.9-3.4-7.5-5-13.8-5
			C1014.8,437.5,1010.2,439.2,1007.3,442.5z"/>
		<path class="st1" d="M1055.4,484v-51h6.3l30.4,43v-43h5.5v51h-6.2l-30.5-43v43H1055.4z"/>
		<path class="st1" d="M1108.7,446.5c0-3.9,1.4-7.3,4.3-10c2.8-2.8,7.3-4.1,13.3-4.1c4.3,0,8.6,1,12.8,3v5.7
			c-3.8-2.1-7.9-3.2-12.2-3.2c-4.1,0-7.2,0.7-9.4,2.2c-2.2,1.5-3.2,3.6-3.2,6.5c0,1.7,0.7,3.2,2.1,4.4c1.4,1.2,3.1,2,5.2,2.6
			c2.1,0.6,4.3,1.3,6.8,2.1c2.5,0.9,4.7,1.8,6.8,2.8c2.1,1,3.8,2.6,5.2,4.7c1.4,2.1,2.1,4.7,2.1,7.8c0,4.2-1.6,7.6-4.8,10
			c-3.2,2.4-7.6,3.6-13.3,3.6c-5.5,0-10.6-1.2-15.1-3.6v-6c4,2.7,8.9,4.1,14.7,4.1c8.7,0,13-2.7,13-8.1c0-2.3-0.7-4.2-2.1-5.8
			c-1.4-1.6-3.1-2.7-5.2-3.4l-6.8-2.2c-2.4-0.8-4.7-1.6-6.8-2.4c-2.1-0.8-3.8-2.1-5.2-3.9C1109.4,451.4,1108.7,449.2,1108.7,446.5z"
			/>
	</g>
</g>
</svg>
